<svg width="12" height="12" viewBox="0 0 12 12" fill="none" xmlns="http://www.w3.org/2000/svg">
<rect x="0.5" y="0.5" width="11" height="11" rx="3.5" fill="#F43F5E"/>
<rect x="0.5" y="0.5" width="11" height="11" rx="3.5" stroke="#F43F5E"/>
<path d="M9.15525 3.59483C9.29585 3.73548 9.37484 3.92621 9.37484 4.12508C9.37484 4.32396 9.29585 4.51469 9.15525 4.65533L5.40525 8.40533C5.2646 8.54594 5.07387 8.62492 4.875 8.62492C4.67613 8.62492 4.4854 8.54594 4.34475 8.40533L2.84475 6.90533C2.70813 6.76388 2.63254 6.57443 2.63424 6.37778C2.63595 6.18114 2.71483 5.99303 2.85389 5.85397C2.99294 5.71491 3.18105 5.63604 3.3777 5.63433C3.57435 5.63262 3.7638 5.70822 3.90525 5.84483L4.875 6.81458L8.09475 3.59483C8.2354 3.45423 8.42613 3.37524 8.625 3.37524C8.82387 3.37524 9.0146 3.45423 9.15525 3.59483Z" fill="white"/>
</svg>
